<?xml version="1.0" encoding="UTF-8"?>
<svg id="Layer_2" data-name="Layer 2" xmlns="http://www.w3.org/2000/svg" viewBox="0 0 605.8 137.45">
  <defs>
    <style>
      .cls-1 {
        fill: #233cea;
        stroke-width: 0px;
      }
    </style>
  </defs>
  <g id="Layer_1-2" data-name="Layer 1">
    <g>
      <g>
        <circle class="cls-1" cx="61.91" cy="15.45" r="15.45"/>
        <circle class="cls-1" cx="61.91" cy="122" r="15.45"/>
        <circle class="cls-1" cx="61.91" cy="68.72" r="15.45"/>
        <circle class="cls-1" cx="15.45" cy="41.49" r="15.45"/>
        <circle class="cls-1" cx="15.45" cy="95.62" r="15.45"/>
        <circle class="cls-1" cx="37.29" cy="81.38" r="5.06"/>
        <circle class="cls-1" cx="75.21" cy="95.62" r="8.55"/>
        <circle class="cls-1" cx="110.43" cy="95.62" r="15.45"/>
        <circle class="cls-1" cx="106.6" cy="44.39" r="18.34"/>
        <path class="cls-1" d="M21.89,81.58s7.6,3.79,10.75-2.3l5.72,4.89-.61,2.26s-6.86-.43-6.86,8.17c0,7.98-9-13.02-9-13.02Z"/>
        <path class="cls-1" d="M59.03,106.83s8.85-2.29,7.8-9.65l10.7-1.55,3.36,4.47.11,1.82s-6.54,3.59-4.12,16.27c1.57,8.25-17.86-11.35-17.86-11.35Z"/>
        <path class="cls-1" d="M66.76,94.25s1.77-7.95-7.62-10.33c-6.55-1.66,14.52-13.58,14.52-13.58l2.06,5.22s-2.4,6.65,3.53,12.52c4.25,4.2-12.49,6.17-12.49,6.17Z"/>
        <path class="cls-1" d="M88.66,40.54s-2.47,21.16-20.58,14.01l2.82,9.27,5.7,4.89.71,1.33s1.84-16.31,23.82-8.16l-2.91-13.47-9.56-7.88Z"/>
      </g>
      <g>
        <path class="cls-1" d="M167.34,106.87V26.63h11.51l23.02,52.32,22.52-52.32h11.51v80.24h-12.17v-50.06h-.22l-16.8,38.6h-10.13l-16.8-38.6h-.28v50.06h-12.17Z"/>
        <path class="cls-1" d="M295.82,82.64h-35.57c0,4.7,1.27,8.22,3.83,10.57,2.55,2.35,5.81,3.52,9.77,3.52,4.74,0,8.92-1.84,12.56-5.51l8.32,7.1c-2.83,3.3-6.01,5.66-9.55,7.08-3.54,1.41-7.24,2.12-11.1,2.12-5.87,0-11.56-1.9-17.07-5.7-5.51-3.8-8.26-11.57-8.26-23.32,0-11.12,2.54-18.81,7.63-23.07,5.08-4.26,10.4-6.39,15.94-6.39,6.28,0,11.77,2.18,16.47,6.53,4.7,4.35,7.05,10.22,7.05,17.59v9.47ZM260.24,73.16h24.12c-.18-4.3-1.4-7.58-3.63-9.86-2.24-2.28-5.05-3.41-8.43-3.41s-6.25,1.14-8.51,3.41c-2.26,2.28-3.44,5.56-3.55,9.86Z"/>
        <path class="cls-1" d="M342.08,106.87v-5.95c-4,4.41-8.92,6.61-14.76,6.61-3.52,0-6.55-.69-9.09-2.07-2.53-1.38-4.61-3.15-6.22-5.31-1.62-2.02-2.7-4.41-3.25-7.19-.55-2.77-.83-7.68-.83-14.73s.28-11.83.83-14.57c.55-2.73,1.63-5.13,3.25-7.19,1.62-2.13,3.69-3.9,6.22-5.31,2.53-1.41,5.56-2.12,9.09-2.12,2.94,0,5.6.62,7.99,1.87,2.39,1.25,4.64,2.88,6.77,4.9v-29.19h11.51v80.24h-11.51ZM330.84,60.55c-5.43,0-8.69,1.85-9.77,5.56-1.08,3.71-1.62,7.75-1.62,12.12s.54,8.57,1.62,12.28c1.08,3.71,4.34,5.56,9.77,5.56s8.53-1.93,9.61-5.78c1.08-3.85,1.62-7.87,1.62-12.06s-.54-8.04-1.62-11.9c-1.08-3.85-4.29-5.78-9.61-5.78Z"/>
        <path class="cls-1" d="M406.78,106.87l-17.57-29.85-17.62,29.85h-13.71l24.56-41.14-23.02-39.1h13.77l16.02,27.81,15.97-27.81h13.77l-23.02,39.1,24.62,41.14h-13.77Z"/>
        <path class="cls-1" d="M426.83,130V49.7h11.51v6c4-4.44,8.92-6.66,14.76-6.66,3.49,0,6.5.71,9.03,2.12,2.53,1.41,4.63,3.19,6.28,5.31,1.58,2.06,2.65,4.45,3.22,7.19.57,2.74.85,7.63.85,14.68s-.29,11.9-.85,14.65c-.57,2.75-1.64,5.14-3.22,7.16-1.65,2.17-3.75,3.94-6.28,5.31-2.53,1.38-5.54,2.07-9.03,2.07-2.97,0-5.64-.61-8.01-1.82-2.37-1.21-4.62-2.84-6.75-4.9v29.19h-11.51ZM449.63,96.07c5.4,0,8.64-1.85,9.72-5.56,1.08-3.71,1.62-7.77,1.62-12.17s-.54-8.47-1.62-12.2c-1.08-3.73-4.32-5.59-9.72-5.59s-8.63,1.93-9.69,5.78c-1.07,3.85-1.6,7.86-1.6,12.01s.53,8.14,1.6,11.98c1.06,3.84,4.29,5.75,9.69,5.75Z"/>
        <path class="cls-1" d="M529.31,82.64h-35.58c0,4.7,1.28,8.22,3.83,10.57,2.55,2.35,5.81,3.52,9.77,3.52,4.74,0,8.92-1.84,12.56-5.51l8.32,7.1c-2.83,3.3-6.01,5.66-9.55,7.08s-7.24,2.12-11.1,2.12c-5.87,0-11.56-1.9-17.07-5.7-5.51-3.8-8.26-11.57-8.26-23.32,0-11.12,2.54-18.81,7.63-23.07,5.08-4.26,10.4-6.39,15.94-6.39,6.28,0,11.77,2.18,16.47,6.53,4.7,4.35,7.05,10.22,7.05,17.59v9.47ZM493.74,73.16h24.12c-.18-4.3-1.4-7.58-3.63-9.86-2.24-2.28-5.05-3.41-8.43-3.41s-6.25,1.14-8.51,3.41c-2.26,2.28-3.44,5.56-3.55,9.86Z"/>
        <path class="cls-1" d="M541.43,106.87v-57.16h11.51v6.11h.22c3.56-4.52,8.52-6.77,14.87-6.77,4.19,0,8.17,1.47,11.95,4.41l-8.32,9.91c-2.5-1.87-5.03-2.81-7.6-2.81-2.83,0-5.39.95-7.68,2.84-2.29,1.89-3.44,4.93-3.44,9.11v34.36h-11.51Z"/>
        <path class="cls-1" d="M585.92,106.92v-48.41h-5.73v-8.81h5.73v-8.98l11.51-12.28v21.26h8.37v8.81h-8.37v48.41h-11.51Z"/>
      </g>
    </g>
  </g>
</svg>