<?xml version="1.0" encoding="UTF-8"?>
<svg id="Layer_2" data-name="Layer 2" xmlns="http://www.w3.org/2000/svg" viewBox="0 0 613.16 137.45">
  <defs>
    <style>
      .cls-1 {
        fill: #233cea;
        stroke-width: 0px;
      }
    </style>
  </defs>
  <g id="Layer_1-2" data-name="Layer 1">
    <g>
      <path class="cls-1" d="M234.28,39.84v64.42h-12.92v-41.9l-17.26,41.9h-9.78l-17.35-41.9v41.9h-12.92V39.84h14.68l20.49,47.9,20.49-47.9h14.58Z"/>
      <path class="cls-1" d="M294.18,82.57h-37.38c.31,3.69,1.6,6.58,3.88,8.68,2.28,2.09,5.08,3.14,8.4,3.14,4.8,0,8.21-2.06,10.24-6.18h13.94c-1.48,4.92-4.31,8.97-8.49,12.14-4.19,3.17-9.32,4.75-15.41,4.75-4.92,0-9.34-1.09-13.24-3.28-3.91-2.18-6.95-5.28-9.14-9.28-2.18-4-3.28-8.61-3.28-13.84s1.08-9.94,3.23-13.94c2.15-4,5.17-7.08,9.04-9.23,3.88-2.15,8.34-3.23,13.38-3.23s9.21,1.05,13.06,3.14c3.84,2.09,6.83,5.06,8.95,8.91,2.12,3.85,3.18,8.26,3.18,13.24,0,1.85-.12,3.51-.37,4.98ZM281.17,73.9c-.06-3.32-1.26-5.98-3.6-7.98-2.34-2-5.2-3-8.58-3-3.2,0-5.89.97-8.08,2.91-2.19,1.94-3.52,4.63-4.02,8.08h24.27Z"/>
      <path class="cls-1" d="M303.74,64.76c2.06-4,4.88-7.08,8.45-9.23,3.57-2.15,7.54-3.23,11.91-3.23,3.32,0,6.49.72,9.51,2.17,3.01,1.45,5.41,3.37,7.2,5.77v-24.27h13.11v68.3h-13.11v-7.57c-1.6,2.52-3.85,4.55-6.74,6.09-2.89,1.54-6.25,2.31-10.06,2.31-4.31,0-8.25-1.11-11.81-3.32-3.57-2.21-6.38-5.34-8.45-9.37-2.06-4.03-3.09-8.66-3.09-13.89s1.03-9.75,3.09-13.75ZM339.04,70.62c-1.23-2.25-2.89-3.97-4.98-5.17-2.09-1.2-4.34-1.8-6.74-1.8s-4.62.59-6.65,1.75c-2.03,1.17-3.68,2.88-4.94,5.12-1.26,2.25-1.89,4.91-1.89,7.98s.63,5.77,1.89,8.08c1.26,2.31,2.92,4.08,4.98,5.31,2.06,1.23,4.26,1.85,6.6,1.85s4.65-.6,6.74-1.8c2.09-1.2,3.75-2.92,4.98-5.17,1.23-2.25,1.85-4.94,1.85-8.08s-.62-5.83-1.85-8.08Z"/>
      <path class="cls-1" d="M405.13,104.26l-13.94-21.69-12.64,21.69h-14.58l20.31-32.49-20.58-31.93h14.86l13.94,21.6,12.55-21.6h14.58l-20.21,32.4,20.58,32.03h-14.86Z"/>
      <path class="cls-1" d="M449.66,54.65c2.92-1.57,6.26-2.35,10.01-2.35,4.37,0,8.32,1.08,11.86,3.23,3.54,2.15,6.34,5.21,8.4,9.18,2.06,3.97,3.09,8.57,3.09,13.8s-1.03,9.86-3.09,13.89c-2.06,4.03-4.86,7.15-8.4,9.37-3.54,2.22-7.49,3.32-11.86,3.32-3.75,0-7.06-.77-9.92-2.31-2.86-1.54-5.18-3.48-6.97-5.81v31.66h-12.92V53.13h12.92v7.38c1.66-2.34,3.95-4.29,6.88-5.86ZM467.93,70.53c-1.26-2.25-2.92-3.95-4.98-5.12-2.06-1.17-4.29-1.75-6.69-1.75s-4.54.6-6.6,1.8c-2.06,1.2-3.72,2.94-4.98,5.21-1.26,2.28-1.89,4.95-1.89,8.03s.63,5.75,1.89,8.03c1.26,2.28,2.92,4.02,4.98,5.21,2.06,1.2,4.26,1.8,6.6,1.8s4.63-.61,6.69-1.85c2.06-1.23,3.72-2.98,4.98-5.26,1.26-2.28,1.89-4.98,1.89-8.12s-.63-5.74-1.89-7.98Z"/>
      <path class="cls-1" d="M539.6,82.57h-37.38c.31,3.69,1.6,6.58,3.88,8.68,2.28,2.09,5.08,3.14,8.4,3.14,4.8,0,8.21-2.06,10.25-6.18h13.94c-1.48,4.92-4.31,8.97-8.49,12.14-4.19,3.17-9.32,4.75-15.41,4.75-4.92,0-9.34-1.09-13.24-3.28-3.91-2.18-6.95-5.28-9.14-9.28-2.18-4-3.28-8.61-3.28-13.84s1.08-9.94,3.23-13.94c2.15-4,5.17-7.08,9.04-9.23,3.88-2.15,8.34-3.23,13.38-3.23s9.21,1.05,13.06,3.14c3.84,2.09,6.83,5.06,8.95,8.91,2.12,3.85,3.18,8.26,3.18,13.24,0,1.85-.12,3.51-.37,4.98ZM526.59,73.9c-.06-3.32-1.26-5.98-3.6-7.98-2.34-2-5.2-3-8.58-3-3.2,0-5.89.97-8.08,2.91-2.18,1.94-3.52,4.63-4.01,8.08h24.27Z"/>
      <path class="cls-1" d="M568.81,54.7c2.68-1.54,5.74-2.31,9.18-2.31v13.57h-3.42c-4.06,0-7.12.95-9.18,2.86-2.06,1.91-3.09,5.23-3.09,9.97v25.47h-12.92v-51.13h12.92v7.94c1.66-2.71,3.83-4.83,6.51-6.37Z"/>
      <path class="cls-1" d="M601.72,63.74v24.74c0,1.72.42,2.97,1.25,3.74.83.77,2.23,1.15,4.2,1.15h6v10.89h-8.12c-10.89,0-16.34-5.29-16.34-15.88v-24.64h-6.09v-10.61h6.09v-12.64h13.01v12.64h11.44v10.61h-11.44Z"/>
    </g>
    <g>
      <circle class="cls-1" cx="61.91" cy="15.45" r="15.45"/>
      <circle class="cls-1" cx="61.91" cy="122" r="15.45"/>
      <circle class="cls-1" cx="61.91" cy="68.72" r="15.45"/>
      <circle class="cls-1" cx="15.45" cy="41.49" r="15.45"/>
      <circle class="cls-1" cx="15.45" cy="95.62" r="15.45"/>
      <circle class="cls-1" cx="37.29" cy="81.38" r="5.06"/>
      <circle class="cls-1" cx="75.21" cy="95.62" r="8.55"/>
      <circle class="cls-1" cx="110.43" cy="95.62" r="15.45"/>
      <circle class="cls-1" cx="106.6" cy="44.39" r="18.34"/>
      <path class="cls-1" d="M21.89,81.58s7.6,3.79,10.75-2.3l5.72,4.89-.61,2.26s-6.86-.43-6.86,8.17c0,7.98-9-13.02-9-13.02Z"/>
      <path class="cls-1" d="M59.03,106.83s8.85-2.29,7.8-9.65l10.7-1.55,3.36,4.47.11,1.82s-6.54,3.59-4.12,16.27c1.57,8.25-17.86-11.35-17.86-11.35Z"/>
      <path class="cls-1" d="M66.76,94.25s1.77-7.95-7.62-10.33c-6.55-1.66,14.52-13.58,14.52-13.58l2.06,5.22s-2.4,6.65,3.53,12.52c4.25,4.2-12.49,6.17-12.49,6.17Z"/>
      <path class="cls-1" d="M88.66,40.54s-2.47,21.16-20.58,14.01l2.82,9.27,5.7,4.89.71,1.33s1.84-16.31,23.82-8.16l-2.91-13.47-9.56-7.88Z"/>
    </g>
  </g>
</svg>