<?xml version="1.0" encoding="UTF-8"?>
<svg id="Layer_2" data-name="Layer 2" xmlns="http://www.w3.org/2000/svg" viewBox="0 0 125.87 137.45">
  <defs>
    <style>
      .cls-1 {
        fill: #fff;
        stroke-width: 0px;
      }
    </style>
  </defs>
  <g id="Layer_1-2" data-name="Layer 1">
    <g>
      <circle class="cls-1" cx="61.91" cy="15.45" r="15.45"/>
      <circle class="cls-1" cx="61.91" cy="122" r="15.45"/>
      <circle class="cls-1" cx="61.91" cy="68.72" r="15.45"/>
      <circle class="cls-1" cx="15.45" cy="41.49" r="15.45"/>
      <circle class="cls-1" cx="15.45" cy="95.62" r="15.45"/>
      <circle class="cls-1" cx="37.29" cy="81.38" r="5.06"/>
      <circle class="cls-1" cx="75.21" cy="95.62" r="8.55"/>
      <circle class="cls-1" cx="110.43" cy="95.62" r="15.45"/>
      <circle class="cls-1" cx="106.6" cy="44.39" r="18.34"/>
      <path class="cls-1" d="M21.89,81.58s7.6,3.79,10.75-2.3l5.72,4.89-.61,2.26s-6.86-.43-6.86,8.17c0,7.98-9-13.02-9-13.02Z"/>
      <path class="cls-1" d="M59.03,106.83s8.85-2.29,7.8-9.65l10.7-1.55,3.36,4.47.11,1.82s-6.54,3.59-4.12,16.27c1.57,8.25-17.86-11.35-17.86-11.35Z"/>
      <path class="cls-1" d="M66.76,94.25s1.77-7.95-7.62-10.33c-6.55-1.66,14.52-13.58,14.52-13.58l2.06,5.22s-2.4,6.65,3.53,12.52c4.25,4.2-12.49,6.17-12.49,6.17Z"/>
      <path class="cls-1" d="M88.66,40.54s-2.47,21.16-20.58,14.01l2.82,9.27,5.7,4.89.71,1.33s1.84-16.31,23.82-8.16l-2.91-13.47-9.56-7.88Z"/>
    </g>
  </g>
</svg>